<?xml version="1.0" standalone="no"?>
<!DOCTYPE svg PUBLIC "-//W3C//DTD SVG 20010904//EN"
 "http://www.w3.org/TR/2001/REC-SVG-20010904/DTD/svg10.dtd">
<svg version="1.0" xmlns="http://www.w3.org/2000/svg"
 width="60.000000pt" height="60.000000pt" viewBox="0 0 60.000000 60.000000"
 preserveAspectRatio="xMidYMid meet">

<g transform="translate(0.000000,60.000000) scale(0.100000,-0.100000)"
fill="#000000" stroke="none">
<path d="M220 527 c-49 -16 -133 -102 -148 -153 -28 -94 -8 -169 63 -239 101
-102 229 -102 330 0 98 97 101 222 8 325 -65 72 -158 97 -253 67z m120 -187
c11 -11 20 -29 20 -40 0 -26 -34 -60 -60 -60 -26 0 -60 34 -60 60 0 11 9 29
20 40 11 11 29 20 40 20 11 0 29 -9 40 -20z m-131 -75 c30 -84 152 -84 182 0
12 34 15 35 62 35 l49 0 -7 -37 c-9 -52 -46 -106 -92 -134 -30 -19 -52 -24
-103 -24 -51 0 -73 5 -103 24 -46 28 -83 82 -92 134 l-7 37 49 0 c47 0 50 -1
62 -35z"/>
<path d="M284 309 c-10 -17 13 -36 27 -22 12 12 4 33 -11 33 -5 0 -12 -5 -16
-11z"/>
</g>
</svg>
